<?xml version="1.0" encoding="UTF-8"?><svg id="Capa_2" xmlns="http://www.w3.org/2000/svg" viewBox="0 0 302.26581 311.1487"><g id="Capa_1-2"><path d="M46.25298,303.20537c-19.31215-5.29555-34.72981-11.99217-46.25298-20.08986l22.42299-44.38291c11.20853,7.47433,24.67894,13.47041,40.41124,17.98826,15.7323,4.51784,31.22714,6.7738,46.49045,6.7738,34.88416,0,52.33218-9.19004,52.33218-27.57012,0-8.7151-4.44067-14.78837-13.31606-18.21979-8.88133-3.42549-23.12946-6.69662-42.75031-9.8134-20.55886-3.11084-37.3004-6.69662-50.22464-10.74546-12.93017-4.04884-24.14464-11.13135-33.64339-21.25345-9.49875-10.12211-14.24813-24.21588-14.24813-42.28725,0-23.6697,9.88464-42.59002,29.66578-56.76691,19.78115-14.17095,46.49045-21.25939,80.12789-21.25939,17.13337,0,34.2608,1.94724,51.39417,5.84173,17.13337,3.89449,31.14996,9.11286,42.04978,15.65513l-22.42299,44.38291c-21.18221-12.45524-45.0122-18.68879-71.48403-18.68879-17.13337,0-30.14072,2.5706-39.01612,7.7118-8.88133,5.1412-13.31606,11.91499-13.31606,20.32139,0,9.3444,4.74938,15.96384,14.24813,19.85832,9.49875,3.89449,24.22181,7.55151,44.15731,10.97699,19.92957,3.11678,36.27929,6.69662,49.05511,10.74546,12.76988,4.04884,23.74688,10.90575,32.93692,20.55886,9.19004,9.65904,13.78506,23.36693,13.78506,41.11771,0,23.36099-10.12804,42.04978-30.37225,56.06637-20.24421,14.01659-47.8084,21.02192-82.69256,21.02192-20.25015,0-40.03129-2.64778-59.3375-7.94333ZM273.02781,104.44978h.00006c16.14767,0,29.23794,13.09027,29.23794,29.23794v98.82342c0,16.14767-13.09027,29.23794-29.23794,29.23794h-.00006c-16.14767,0-29.23794-13.09027-29.23794-29.23794v-98.82342c0-16.14767,13.09027-29.23794,29.23794-29.23794ZM273.02776,0h.00017c16.14764,0,29.23788,13.09025,29.23788,29.23788v.00006c0,16.14764-13.09025,29.23788-29.23788,29.23788h-.00017c-16.14764,0-29.23788-13.09025-29.23788-29.23788v-.00006c0-16.14764,13.09025-29.23788,29.23788-29.23788Z" fill="#f45227"/></g></svg>